<?xml version="1.0" encoding="UTF-8" standalone="no"?>
<!-- Created with Inkscape (http://www.inkscape.org/) -->

<svg
   xmlns:osb="http://www.openswatchbook.org/uri/2009/osb"
   xmlns:dc="http://purl.org/dc/elements/1.1/"
   xmlns:cc="http://creativecommons.org/ns#"
   xmlns:rdf="http://www.w3.org/1999/02/22-rdf-syntax-ns#"
   xmlns:svg="http://www.w3.org/2000/svg"
   xmlns="http://www.w3.org/2000/svg"
   xmlns:xlink="http://www.w3.org/1999/xlink"
   xmlns:sodipodi="http://sodipodi.sourceforge.net/DTD/sodipodi-0.dtd"
   xmlns:inkscape="http://www.inkscape.org/namespaces/inkscape"
   width="80.687332mm"
   height="19.002302mm"
   viewBox="0 0 285.9 67.330992"
   id="svg2"
   version="1.1"
   inkscape:version="0.91 r13725"
   sodipodi:docname="logo.svg">
  <defs
     id="defs4">
    <linearGradient
       id="linearGradient4223"
       osb:paint="solid">
      <stop
         style="stop-color:#ffffff;stop-opacity:1;"
         offset="0"
         id="stop4225" />
    </linearGradient>
    <linearGradient
       inkscape:collect="always"
       xlink:href="#linearGradient4223"
       id="linearGradient4227"
       x1="65.400003"
       y1="74.400002"
       x2="80.200003"
       y2="74.400002"
       gradientUnits="userSpaceOnUse" />
  </defs>
  <sodipodi:namedview
     id="base"
     pagecolor="#ffffff"
     bordercolor="#666666"
     borderopacity="1.0"
     inkscape:pageopacity="0.0"
     inkscape:pageshadow="2"
     inkscape:zoom="1.979899"
     inkscape:cx="-24.426915"
     inkscape:cy="23.618484"
     inkscape:document-units="px"
     inkscape:current-layer="layer1"
     showgrid="false"
     fit-margin-top="0"
     fit-margin-left="0"
     fit-margin-right="0"
     fit-margin-bottom="0"
     inkscape:window-width="1920"
     inkscape:window-height="983"
     inkscape:window-x="0"
     inkscape:window-y="27"
     inkscape:window-maximized="1" />
  <metadata
     id="metadata7">
    <rdf:RDF>
      <cc:Work
         rdf:about="">
        <dc:format>image/svg+xml</dc:format>
        <dc:type
           rdf:resource="http://purl.org/dc/dcmitype/StillImage" />
        <dc:title />
      </cc:Work>
    </rdf:RDF>
  </metadata>
  <g
     inkscape:label="Layer 1"
     inkscape:groupmode="layer"
     id="layer1"
     transform="translate(-134.19285,-475.83956)">
    <g
       id="g4196"
       transform="translate(88.392853,435.85218)"
       style="fill:#000000">
      <g
         id="g4141"
         style="fill:#000000">
        <g
           id="g4143"
           style="fill:#000000">
          <path
             id="path4145"
             d="m 125.4,93.2 0,-39.8 13.7,0 c 6.2,0 10.8,1.7 14,5.1 3.2,3.4 4.8,8.3 4.8,14.8 0,6.5 -1.6,11.4 -4.8,14.8 -3.2,3.4 -7.8,5.1 -14,5.1 l -13.7,0 0,0 z m 7.2,-6.5 6.5,0 c 4.1,0 7.1,-1 8.9,-3.1 1.8,-2.1 2.7,-5.5 2.7,-10.3 0,-4.8 -0.9,-8.2 -2.7,-10.3 -1.8,-2.1 -4.8,-3.1 -8.9,-3.1 l -6.5,0 0,26.8 0,0 z"
             class="st0"
             inkscape:connector-curvature="0"
             style="fill:#000000" />
        </g>
        <g
           id="g4147"
           style="fill:#000000">
          <path
             id="path4149"
             d="m 162.4,93.2 0,-27.1 c 0.5,-0.2 1.2,-0.5 2,-0.8 1.7,-0.5 3.4,-1 5.1,-1.3 2.5,-0.6 5.1,-0.9 7.7,-0.9 l 0,6.1 c -2.6,0 -5.2,0.3 -7.7,1 l 0,23.1 -7.1,-0.1 0,0 z"
             class="st0"
             inkscape:connector-curvature="0"
             style="fill:#000000" />
        </g>
        <g
           id="g4151"
           style="fill:#000000">
          <path
             id="path4153"
             d="m 182.8,89.7 c -2.4,-2.7 -3.6,-6.4 -3.6,-11.3 0,-4.9 1.2,-8.7 3.6,-11.3 2.4,-2.7 5.9,-4 10.4,-4 4.5,0 8,1.3 10.4,4 2.4,2.7 3.6,6.4 3.6,11.3 0,4.9 -1.2,8.7 -3.6,11.3 -2.4,2.7 -5.9,4 -10.4,4 -4.4,0 -7.9,-1.4 -10.4,-4 z M 188,70.8 c -1.1,1.3 -1.7,3.8 -1.7,7.5 0,3.7 0.6,6.2 1.7,7.5 1.4,1.4 3.3,2.1 5.2,1.9 2.3,0 4.1,-0.6 5.2,-1.9 1.1,-1.3 1.7,-3.8 1.7,-7.5 0,-3.7 -0.6,-6.2 -1.7,-7.5 -1.1,-1.3 -2.9,-2 -5.2,-1.9 -1.9,-0.2 -3.8,0.6 -5.2,1.9 l 0,0 z"
             class="st0"
             inkscape:connector-curvature="0"
             style="fill:#000000" />
        </g>
        <g
           id="g4155"
           style="fill:#000000">
          <path
             id="path4157"
             d="m 211.8,104.2 0,-31.2 c 0,-2.7 1.1,-5.2 3.1,-7.1 2,-2 5.2,-3 9.4,-3 1,0 2,0.1 2.9,0.2 1.2,0.2 2.4,0.6 3.5,1.2 1.3,0.6 2.4,1.5 3.4,2.6 1.1,1.4 2,2.9 2.5,4.6 0.7,2.3 1.1,4.6 1,7 0,4.9 -1.2,8.6 -3.6,11.2 -2.4,2.6 -5.8,3.9 -10.2,3.9 -1.6,0 -3.3,-0.2 -4.9,-0.5 l 0,10.9 -7.1,0.2 0,0 z M 219,87.9 c 1.5,0.2 2.9,0.3 4.4,0.4 2,0.1 3.9,-0.6 5.3,-2 1.2,-1.3 1.8,-3.7 1.8,-7.1 0,-3.4 -0.5,-5.9 -1.4,-7.6 -0.9,-1.6 -2.5,-2.3 -4.8,-2.3 -3.6,0 -5.4,1.1 -5.4,3.2 l 0.1,15.4 0,0 z"
             class="st0"
             inkscape:connector-curvature="0"
             style="fill:#000000" />
        </g>
        <g
           id="g4159"
           style="fill:#000000">
          <path
             id="path4161"
             d="m 240.5,69.6 0,-6.1 5,0 0,-8.8 7.1,0 0,8.8 7,0 0,6.1 -7,0 0,14.7 c -0.1,0.9 0.2,1.9 0.8,2.6 0.8,0.5 1.8,0.8 2.8,0.7 1.2,0 2.3,-0.2 3.4,-0.6 l 0,5.9 c -1.5,0.6 -3,0.9 -4.6,0.9 l 0,0 c -2.6,0.2 -5.1,-0.8 -7,-2.6 -1.8,-2 -2.7,-4.6 -2.5,-7.2 l 0,-14.4 -5,0 0,0 z"
             class="st0"
             inkscape:connector-curvature="0"
             style="fill:#000000" />
        </g>
        <g
           id="g4163"
           style="fill:#000000">
          <path
             id="path4165"
             d="m 265.8,59.4 0,-6.5 7.3,0 0,6.5 -7.3,0 z m 0.1,33.8 0,-29.7 7.1,0 0,29.7 -7.1,0 z"
             class="st0"
             inkscape:connector-curvature="0"
             style="fill:#000000" />
        </g>
        <g
           id="g4167"
           style="fill:#000000">
          <path
             id="path4169"
             d="m 279.6,78.3 c 0,-5 1.2,-8.7 3.6,-11.4 2.4,-2.7 5.9,-3.9 10.4,-3.9 2.9,0 5.9,0.6 8.6,1.7 l 0,5.9 c -2.3,-0.9 -4.9,-1.4 -7.4,-1.4 -2.7,0 -4.8,0.6 -6.1,1.9 -1.3,1.3 -2,3.7 -2,7.3 0,3.6 0.7,6 2,7.3 1.3,1.3 3.4,1.9 6.1,1.9 2.5,0 5,-0.5 7.4,-1.5 l 0,5.9 c -2.7,1.1 -5.6,1.7 -8.6,1.7 -4.5,0 -8,-1.3 -10.4,-4 -2.4,-2.7 -3.6,-6.5 -3.6,-11.4 z"
             class="st0"
             inkscape:connector-curvature="0"
             style="fill:#000000" />
        </g>
        <g
           id="g4171"
           style="fill:#000000">
          <path
             id="path4173"
             d="m 306.5,83.5 c 0,-0.6 0.1,-1.2 0.2,-1.9 0.2,-0.8 0.5,-1.6 0.9,-2.4 0.5,-1 1.2,-1.8 2,-2.5 1.1,-0.9 2.4,-1.5 3.8,-1.9 1.9,-0.5 3.9,-0.8 5.9,-0.8 1.7,0 3.5,0.1 5.2,0.4 0,-3.8 -2.1,-5.7 -6.3,-5.7 -3,-0.1 -5.9,0.4 -8.7,1.5 l 0,-5.9 c 2.9,-1 6,-1.6 9.1,-1.5 4.2,0 7.5,1.1 9.7,3.2 2.2,2.2 3.4,5.3 3.4,9.4 l 0,8 c 0,2.7 -1.1,5.2 -3.1,7.1 -2,2 -5.2,3 -9.4,3 -4.4,0 -7.6,-1 -9.7,-3 -2,-1.7 -3.1,-4.3 -3,-7 z m 7.1,-0.9 c 0,3.2 1.9,4.8 5.6,4.8 l 0.1,0 c 3.6,0 5.3,-1.5 5.3,-4.5 l 0,-3.8 c -1.4,-0.2 -2.8,-0.3 -4.3,-0.4 -4.4,0 -6.7,1.3 -6.7,3.9 l 0,0 z"
             class="st0"
             inkscape:connector-curvature="0"
             style="fill:#000000" />
        </g>
      </g>
      <path
         id="path4175"
         d="m 92.8,46.1 c -0.3,-0.3 -0.6,-0.5 -0.9,-0.7 l 0,-0.4 -0.5,0 C 89.1,43.3 86.6,42 83.8,41.3 79.9,40.4 75.9,39.9 71.9,40 l -17.7,0 c -2.9,0 -5.1,0.7 -6.4,2 -1.3,1.3 -2,3.5 -2,6.4 l 0,49.3 c 0,1.8 0.1,3.6 0.6,5.3 0.4,1.4 1.3,2.5 2.5,3.2 1.7,0.9 3.7,1.2 5.6,1.1 l 17.8,0 c 2.8,0 5.6,-0.2 8.3,-0.6 2.4,-0.4 4.7,-1.1 6.9,-2.1 2.2,-1 4.2,-2.3 5.9,-3.9 2.3,-2.1 4.2,-4.5 5.6,-7.2 1.5,-2.8 2.6,-5.9 3.3,-9 0.7,-3.6 1.1,-7.4 1.1,-11.1 C 103.3,61.2 99.8,52.1 92.8,46.1 Z M 82.7,85.6 c -2.7,2.3 -6.2,3.6 -9.8,3.5 -4.2,0 -8.1,-1.7 -10.9,-4.9 -2.3,-2.6 -3.6,-6 -3.7,-9.6 0,-5.5 3,-10.4 7.9,-12.8 1.7,-0.7 3.2,-1.8 4.5,-3.1 0.6,-0.8 0.9,-1.8 0.9,-2.8 1.6,1.9 2.9,3.7 4.2,4.4 1.9,1.1 4.8,1.1 8.5,5.6 2,2.5 3,5.6 2.9,8.7 0.3,4.2 -1.4,8.2 -4.5,11 l 0,0 0,0 z"
         class="st0"
         inkscape:connector-curvature="0"
         style="fill:#000000;fill-opacity:1" />
      <g
         id="g4177"
         style="fill:#000000">
        <defs
           id="defs4179">
          <path
             d="m 92.8,46.1 c -0.3,-0.3 -0.6,-0.5 -0.9,-0.7 l 0,-0.4 -0.5,0 C 89.1,43.3 86.6,42 83.8,41.3 79.9,40.4 75.9,39.9 71.9,40 l -17.7,0 c -2.9,0 -5.1,0.7 -6.4,2 -1.3,1.3 -2,3.5 -2,6.4 l 0,49.3 c 0,1.8 0.1,3.6 0.6,5.3 0.4,1.4 1.3,2.5 2.5,3.2 1.7,0.9 3.7,1.2 5.6,1.1 l 17.8,0 c 2.8,0 5.6,-0.2 8.3,-0.6 2.4,-0.4 4.7,-1.1 6.9,-2.1 2.2,-1 4.2,-2.3 5.9,-3.9 2.3,-2.1 4.2,-4.5 5.6,-7.2 1.5,-2.8 2.6,-5.9 3.3,-9 0.7,-3.6 1.1,-7.4 1.1,-11.1 C 103.3,61.2 99.8,52.1 92.8,46.1 Z M 82.7,85.6 c -2.7,2.3 -6.2,3.6 -9.8,3.5 -4.2,0 -8.1,-1.7 -10.9,-4.9 -2.3,-2.6 -3.6,-6 -3.7,-9.6 0,-5.5 3,-10.4 7.9,-12.8 1.7,-0.7 3.2,-1.8 4.5,-3.1 0.6,-0.8 0.9,-1.8 0.9,-2.8 1.6,1.9 2.9,3.7 4.2,4.4 1.9,1.1 4.8,1.1 8.5,5.6 2,2.5 3,5.6 2.9,8.7 0.3,4.2 -1.4,8.2 -4.5,11 l 0,0 0,0 z"
             id="SVGID_1_"
             inkscape:connector-curvature="0" />
        </defs>
        <clipPath
           id="SVGID_2_">
          <use
             id="use4183"
             style="overflow:visible"
             xlink:href="#SVGID_1_"
             x="0"
             y="0"
             width="100%"
             height="100%" />
        </clipPath>
      </g>
      <circle
         id="circle4185"
         cy="74.400002"
         cx="72.800003"
         class="st0"
         style="fill:#000000;fill-opacity:1;stroke:url(#linearGradient4227);stroke-width:5.0999999;stroke-linejoin:round;stroke-miterlimit:4;stroke-dasharray:none"
         r="5.0008879" />
    </g>
  </g>
  <style
     id="style4137"
     type="text/css">
	.st0{fill:#FFFFFF;}
</style>
</svg>
